<svg xmlns="http://www.w3.org/2000/svg" viewBox="0 0 800 200" width="800" height="200">
  <style>
    text { font-family: monospace; font-size: 12px; }
    .signal { stroke: black; stroke-width: 2; fill: none; }
    .grid { stroke: lightgray; stroke-width: 1; stroke-dasharray: 4; }
  </style>
  
  <!-- Фон -->
  <rect width="800" height="200" fill="white"/>
  
  <!-- Линии сигналов -->
  <!-- SCL -->
  <text x="10" y="40">SCL</text>
  <polyline class="signal" points="50,35 70,35 70,50 90,50 90,35 110,35 110,50 130,50 130,35 150,35 150,50 170,50 170,35 190,35 190,50 210,50 210,35 230,35 230,50 250,50 250,35 270,35 270,50 290,50 290,35 310,35 310,50 330,50 330,35 350,35 350,50 370,50 370,35 390,35 390,50 410,50 410,35 430,35 430,50 450,50 450,35"/>
  
  <!-- SDA -->
  <text x="10" y="100">SDA</text>
  <polyline class="signal" points="50,95 50,110 60,110 60,95 70,95 70,110 80,110 80,95 90,95 90,110 100,110 100,95 110,95 110,110 120,110 120,95 130,95 130,110 140,110 140,95 150,95 150,110 160,110 160,95 170,95 170,110 180,110 180,95 190,95 190,110 200,110 200,95 210,95 210,110 220,110 220,95 230,95 230,110 240,110 240,95 250,95 250,110 260,110 260,95 270,95 270,110 280,110 280,95 290,95 290,110 300,110 300,95 310,95 310,110 320,110 320,95 330,95 330,110 340,110 340,95 350,95 350,110 360,110 360,95 370,95 370,110 380,110 380,95 390,95 390,110 400,110 400,95 410,95 410,110 420,110 420,95 430,95 430,110 440,110 440,95 450,95"/>
  
  <!-- Метки -->
  <text x="52" y="130" font-size="10">S</text>
  <text x="290" y="130" font-size="10">ACK</text>
  <text x="440" y="130" font-size="10">P</text>
  
  <!-- Подписи -->
  <text x="70" y="160" font-size="10">Адрес 0x08</text>
  <line x1="60" y1="140" x2="250" y2="140" stroke="gray"/>
  
  <text x="260" y="180" font-size="10">Данные (0x80)</text>
  <line x1="260" y1="140" x2="430" y2="140" stroke="gray"/>
</svg>